<svg xmlns="http://www.w3.org/2000/svg" viewBox="0 0 120 120" fill="none">
  <!--
    I6: "Heavy / Light"
    The smooth arc is VERY thick and bold (stroke-width=10). The graph
    portion uses thin delicate lines. The contrast between heavy curve
    and light graph is the design concept. Striking and unusual.
  -->

  <!-- HEAVY vertical bar -->
  <line x1="60" y1="8" x2="60" y2="112" stroke="#1e293b" stroke-width="10" stroke-linecap="round"/>

  <!-- HEAVY 210° arc (big gap on right, ~150°) -->
  <path d="M 66,37 A 24,24 0 1 0 66,83" stroke="#1e293b" stroke-width="10" fill="none" stroke-linecap="round"/>

  <!-- LIGHT graph completing the right side -->
  <line x1="66" y1="37" x2="76" y2="40" stroke="#3b82f6" stroke-width="1.8" stroke-linecap="round"/>
  <line x1="76" y1="40" x2="84" y2="48" stroke="#3b82f6" stroke-width="1.8" stroke-linecap="round"/>
  <line x1="84" y1="48" x2="88" y2="60" stroke="#3b82f6" stroke-width="1.8" stroke-linecap="round"/>
  <line x1="88" y1="60" x2="84" y2="72" stroke="#3b82f6" stroke-width="1.8" stroke-linecap="round"/>
  <line x1="84" y1="72" x2="76" y2="80" stroke="#3b82f6" stroke-width="1.8" stroke-linecap="round"/>
  <line x1="76" y1="80" x2="66" y2="83" stroke="#3b82f6" stroke-width="1.8" stroke-linecap="round"/>

  <!-- Delicate cross-links -->
  <line x1="76" y1="40" x2="88" y2="60" stroke="#3b82f6" stroke-width="1" opacity="0.3"/>
  <line x1="84" y1="48" x2="84" y2="72" stroke="#3b82f6" stroke-width="1" opacity="0.3"/>
  <line x1="88" y1="60" x2="76" y2="80" stroke="#3b82f6" stroke-width="1" opacity="0.3"/>
  <line x1="76" y1="40" x2="84" y2="72" stroke="#3b82f6" stroke-width="1" opacity="0.2"/>

  <!-- Delicate outward branches -->
  <line x1="84" y1="48" x2="100" y2="40" stroke="#3b82f6" stroke-width="1.5" stroke-linecap="round"/>
  <line x1="88" y1="60" x2="108" y2="58" stroke="#3b82f6" stroke-width="1.5" stroke-linecap="round"/>
  <line x1="84" y1="72" x2="100" y2="80" stroke="#3b82f6" stroke-width="1.5" stroke-linecap="round"/>
  <line x1="100" y1="40" x2="108" y2="58" stroke="#3b82f6" stroke-width="1" opacity="0.25"/>
  <line x1="108" y1="58" x2="100" y2="80" stroke="#3b82f6" stroke-width="1" opacity="0.25"/>

  <!-- Small delicate graph nodes -->
  <circle cx="76" cy="40" r="3" fill="#3b82f6"/>
  <circle cx="84" cy="48" r="3" fill="#3b82f6"/>
  <circle cx="88" cy="60" r="3" fill="#3b82f6"/>
  <circle cx="84" cy="72" r="3" fill="#3b82f6"/>
  <circle cx="76" cy="80" r="3" fill="#3b82f6"/>
  <circle cx="100" cy="40" r="2.5" fill="#3b82f6"/>
  <circle cx="108" cy="58" r="2.5" fill="#3b82f6"/>
  <circle cx="100" cy="80" r="2.5" fill="#3b82f6"/>
</svg>
