<svg xmlns="http://www.w3.org/2000/svg" viewBox="0 0 120 120" fill="none">
  <!--
    J2: "Concentric"
    Inner smooth ϕ circle. Outer φ circle traced entirely by graph nodes.
    Spoke edges radiate from inner to outer. The graph web expands ϕ into φ.
  -->

  <!-- Inner ϕ loop (smooth, small, slightly offset left) -->
  <circle cx="54" cy="58" r="12" stroke="#1e293b" stroke-width="4" fill="none"/>

  <!-- Vertical bar through both -->
  <line x1="60" y1="8" x2="60" y2="112" stroke="#1e293b" stroke-width="5" stroke-linecap="round"/>

  <!-- Outer φ circle traced by graph edges (octagonal) -->
  <line x1="60" y1="36" x2="77" y2="43" stroke="#3b82f6" stroke-width="2.5" stroke-linecap="round"/>
  <line x1="77" y1="43" x2="84" y2="60" stroke="#3b82f6" stroke-width="2.5" stroke-linecap="round"/>
  <line x1="84" y1="60" x2="77" y2="77" stroke="#3b82f6" stroke-width="2.5" stroke-linecap="round"/>
  <line x1="77" y1="77" x2="60" y2="84" stroke="#3b82f6" stroke-width="2.5" stroke-linecap="round"/>
  <line x1="60" y1="84" x2="43" y2="77" stroke="#3b82f6" stroke-width="2.5" stroke-linecap="round"/>
  <line x1="43" y1="77" x2="36" y2="60" stroke="#3b82f6" stroke-width="2.5" stroke-linecap="round"/>
  <line x1="36" y1="60" x2="43" y2="43" stroke="#3b82f6" stroke-width="2.5" stroke-linecap="round"/>
  <line x1="43" y1="43" x2="60" y2="36" stroke="#3b82f6" stroke-width="2.5" stroke-linecap="round"/>

  <!-- Spoke edges: inner ϕ → outer φ -->
  <line x1="54" y1="46" x2="60" y2="36" stroke="#3b82f6" stroke-width="2" stroke-linecap="round" opacity="0.5"/>
  <line x1="66" y1="58" x2="84" y2="60" stroke="#3b82f6" stroke-width="2" stroke-linecap="round" opacity="0.5"/>
  <line x1="54" y1="70" x2="60" y2="84" stroke="#3b82f6" stroke-width="2" stroke-linecap="round" opacity="0.5"/>
  <line x1="42" y1="58" x2="36" y2="60" stroke="#3b82f6" stroke-width="2" stroke-linecap="round" opacity="0.5"/>

  <!-- Bar endpoint nodes -->
  <circle cx="60" cy="8" r="5" fill="#1e293b"/>
  <circle cx="60" cy="112" r="5" fill="#1e293b"/>

  <!-- Outer circle nodes -->
  <circle cx="60" cy="36" r="4" fill="#3b82f6"/>
  <circle cx="77" cy="43" r="4" fill="#3b82f6"/>
  <circle cx="84" cy="60" r="4" fill="#3b82f6"/>
  <circle cx="77" cy="77" r="4" fill="#3b82f6"/>
  <circle cx="60" cy="84" r="4" fill="#3b82f6"/>
  <circle cx="43" cy="77" r="4" fill="#3b82f6"/>
  <circle cx="36" cy="60" r="4" fill="#3b82f6"/>
  <circle cx="43" cy="43" r="4" fill="#3b82f6"/>
</svg>
