<svg xmlns="http://www.w3.org/2000/svg" viewBox="0 0 120 120" fill="none">
  <!--
    I5: "Spiral Dissolve"
    The bowl is a spiral (~1.25 turns) that expands outward. The spiral's
    outer end dissolves into graph nodes. Dynamic, energetic, suggests
    ever-expanding knowledge.
  -->

  <!-- Vertical bar -->
  <line x1="60" y1="8" x2="60" y2="112" stroke="#1e293b" stroke-width="5" stroke-linecap="round"/>

  <!-- Spiral: starts tight, expands outward (~1.25 turns) -->
  <!-- Inner loop: from top, clockwise through right, bottom, left -->
  <path d="M 60,38
    C 82,38 82,82 60,82
    C 34,82 30,38 56,34
    C 70,32 82,40 86,52"
    stroke="#1e293b" stroke-width="5" fill="none" stroke-linecap="round"/>

  <!-- Graph nodes continuing from spiral end (86,52) outward -->
  <line x1="86" y1="52" x2="94" y2="58" stroke="#3b82f6" stroke-width="2.5" stroke-linecap="round"/>
  <line x1="94" y1="58" x2="96" y2="70" stroke="#3b82f6" stroke-width="2.5" stroke-linecap="round"/>
  <line x1="96" y1="70" x2="90" y2="82" stroke="#3b82f6" stroke-width="2.5" stroke-linecap="round"/>
  <line x1="90" y1="82" x2="78" y2="88" stroke="#3b82f6" stroke-width="2.5" stroke-linecap="round"/>

  <!-- Cross-links in the dissolve area -->
  <line x1="86" y1="52" x2="96" y2="70" stroke="#3b82f6" stroke-width="1.5" opacity="0.3"/>
  <line x1="94" y1="58" x2="90" y2="82" stroke="#3b82f6" stroke-width="1.5" opacity="0.3"/>

  <!-- Outward branches -->
  <line x1="94" y1="58" x2="112" y2="50" stroke="#3b82f6" stroke-width="2" stroke-linecap="round"/>
  <line x1="96" y1="70" x2="114" y2="74" stroke="#3b82f6" stroke-width="2" stroke-linecap="round"/>

  <!-- Phi nodes -->
  <circle cx="60" cy="8" r="5" fill="#1e293b"/>
  <circle cx="60" cy="112" r="5" fill="#1e293b"/>
  <circle cx="60" cy="38" r="4.5" fill="#1e293b"/>
  <circle cx="86" cy="52" r="4.5" fill="#1e293b"/>

  <!-- Dissolve nodes -->
  <circle cx="94" cy="58" r="4" fill="#3b82f6"/>
  <circle cx="96" cy="70" r="4" fill="#3b82f6"/>
  <circle cx="90" cy="82" r="4" fill="#3b82f6"/>
  <circle cx="78" cy="88" r="4" fill="#3b82f6"/>

  <!-- Leaf nodes -->
  <circle cx="112" cy="50" r="3.5" fill="#3b82f6"/>
  <circle cx="114" cy="74" r="3.5" fill="#3b82f6"/>
</svg>
