<svg xmlns="http://www.w3.org/2000/svg" viewBox="0 0 120 120" fill="none">
  <!--
    H3: "Tilted + Branching Network"
    Tilted -12°, circular bowl, ~90° gap in upper-left.
    Network nodes complete the arc AND branch outward (tree-like).
  -->

  <!-- Tilted partial circle + bar -->
  <g transform="rotate(-12, 60, 60)">
    <path d="M 60,36 A 24,24 0 1 1 36,60" stroke="#1e293b" stroke-width="5" fill="none" stroke-linecap="round"/>
    <line x1="60" y1="8" x2="60" y2="112" stroke="#1e293b" stroke-width="5" stroke-linecap="round"/>
  </g>

  <!--
    After -12° rotation:
    Arc start (60,36) → (55, 37)
    Arc end (36,60) → (37, 65)
    Bar top (60,8) → (50, 11)
    Bar bottom (60,112) → (70, 109)
  -->

  <!-- Network completing the arc (tracing the missing upper-left quarter) -->
  <line x1="55" y1="37" x2="46" y2="32" stroke="#3b82f6" stroke-width="2.5" stroke-linecap="round"/>
  <line x1="46" y1="32" x2="38" y2="36" stroke="#3b82f6" stroke-width="2.5" stroke-linecap="round"/>
  <line x1="38" y1="36" x2="34" y2="48" stroke="#3b82f6" stroke-width="2.5" stroke-linecap="round"/>
  <line x1="34" y1="48" x2="37" y2="65" stroke="#3b82f6" stroke-width="2.5" stroke-linecap="round"/>

  <!-- Cross-link -->
  <line x1="46" y1="32" x2="34" y2="48" stroke="#3b82f6" stroke-width="1.5" opacity="0.3"/>

  <!-- Branches extending outward from network -->
  <line x1="46" y1="32" x2="38" y2="14" stroke="#3b82f6" stroke-width="2" stroke-linecap="round"/>
  <line x1="38" y1="36" x2="18" y2="28" stroke="#3b82f6" stroke-width="2" stroke-linecap="round"/>
  <line x1="34" y1="48" x2="14" y2="50" stroke="#3b82f6" stroke-width="2" stroke-linecap="round"/>

  <!-- Branch from right side of circle -->
  <line x1="83" y1="55" x2="102" y2="48" stroke="#3b82f6" stroke-width="2.5" stroke-linecap="round"/>

  <!-- Phi nodes -->
  <circle cx="50" cy="11" r="5" fill="#1e293b"/>
  <circle cx="70" cy="109" r="5" fill="#1e293b"/>
  <circle cx="55" cy="37" r="4.5" fill="#1e293b"/>
  <circle cx="37" cy="65" r="4.5" fill="#1e293b"/>
  <circle cx="83" cy="55" r="4" fill="#1e293b"/>

  <!-- Network nodes -->
  <circle cx="46" cy="32" r="4" fill="#3b82f6"/>
  <circle cx="38" cy="36" r="4" fill="#3b82f6"/>
  <circle cx="34" cy="48" r="4" fill="#3b82f6"/>

  <!-- Leaf nodes -->
  <circle cx="38" cy="14" r="3.5" fill="#3b82f6"/>
  <circle cx="18" cy="28" r="3.5" fill="#3b82f6"/>
  <circle cx="14" cy="50" r="3.5" fill="#3b82f6"/>
  <circle cx="102" cy="48" r="4" fill="#3b82f6"/>
</svg>
