<svg xmlns="http://www.w3.org/2000/svg" viewBox="0 0 120 120" fill="none">
  <!--
    E3: "Sprouting"
    Same upper-left gap as the original, but with tree-like multi-level
    branches from the endpoints. Suggests organic growth of knowledge.
  -->

  <!-- ~270° arc: from top, clockwise through right, bottom, to left -->
  <path d="M 60,24 A 26,36 0 1 1 34,60" stroke="#1e293b" stroke-width="5" fill="none" stroke-linecap="round"/>

  <!-- Vertical bar -->
  <line x1="60" y1="8" x2="60" y2="112" stroke="#1e293b" stroke-width="5" stroke-linecap="round"/>

  <!-- Branch tree from top endpoint (60,24) -->
  <line x1="60" y1="24" x2="46" y2="12" stroke="#3b82f6" stroke-width="2.5" stroke-linecap="round"/>
  <line x1="46" y1="12" x2="34" y2="4" stroke="#3b82f6" stroke-width="2" stroke-linecap="round"/>
  <line x1="46" y1="12" x2="50" y2="2" stroke="#3b82f6" stroke-width="2" stroke-linecap="round"/>

  <!-- Branch tree from left endpoint (34,60) -->
  <line x1="34" y1="60" x2="18" y2="50" stroke="#3b82f6" stroke-width="2.5" stroke-linecap="round"/>
  <line x1="18" y1="50" x2="6" y2="42" stroke="#3b82f6" stroke-width="2" stroke-linecap="round"/>
  <line x1="18" y1="50" x2="8" y2="56" stroke="#3b82f6" stroke-width="2" stroke-linecap="round"/>

  <!-- Single branch from right side (balance) -->
  <line x1="86" y1="60" x2="104" y2="56" stroke="#3b82f6" stroke-width="2.5" stroke-linecap="round"/>

  <!-- Phi nodes -->
  <circle cx="60" cy="8" r="5" fill="#1e293b"/>
  <circle cx="60" cy="112" r="5" fill="#1e293b"/>
  <circle cx="60" cy="24" r="4.5" fill="#1e293b"/>
  <circle cx="34" cy="60" r="4.5" fill="#1e293b"/>
  <circle cx="86" cy="60" r="4" fill="#1e293b"/>

  <!-- First-level branch nodes -->
  <circle cx="46" cy="12" r="4" fill="#3b82f6"/>
  <circle cx="18" cy="50" r="4" fill="#3b82f6"/>

  <!-- Second-level leaf nodes -->
  <circle cx="34" cy="4" r="3" fill="#3b82f6"/>
  <circle cx="50" cy="2" r="3" fill="#3b82f6"/>
  <circle cx="6" cy="42" r="3" fill="#3b82f6"/>
  <circle cx="8" cy="56" r="3" fill="#3b82f6"/>

  <!-- Right branch leaf -->
  <circle cx="104" cy="56" r="3.5" fill="#3b82f6"/>
</svg>
