<svg xmlns="http://www.w3.org/2000/svg" viewBox="0 0 120 120" fill="none">
  <!--
    E2: "Network Gap"
    Large gap (~120°) in the upper-right filled with a small graph network.
    The phi is half-curve, half-graph — the shape is completed by the network.
  -->

  <!-- ~240° arc: from right, clockwise through bottom, left, up to upper-left -->
  <path d="M 86,60 A 26,36 0 1 1 47,29" stroke="#1e293b" stroke-width="5" fill="none" stroke-linecap="round"/>

  <!-- Vertical bar -->
  <line x1="60" y1="8" x2="60" y2="112" stroke="#1e293b" stroke-width="5" stroke-linecap="round"/>

  <!-- Network nodes filling the gap area -->
  <!-- These nodes roughly trace where the missing arc would be -->
  <line x1="47" y1="29" x2="58" y2="14" stroke="#3b82f6" stroke-width="2.5" stroke-linecap="round"/>
  <line x1="58" y1="14" x2="78" y2="16" stroke="#3b82f6" stroke-width="2.5" stroke-linecap="round"/>
  <line x1="78" y1="16" x2="96" y2="32" stroke="#3b82f6" stroke-width="2.5" stroke-linecap="round"/>
  <line x1="96" y1="32" x2="86" y2="60" stroke="#3b82f6" stroke-width="2.5" stroke-linecap="round"/>

  <!-- Cross-links within the gap network -->
  <line x1="58" y1="14" x2="96" y2="32" stroke="#3b82f6" stroke-width="1.5" opacity="0.35"/>
  <line x1="47" y1="29" x2="78" y2="16" stroke="#3b82f6" stroke-width="1.5" opacity="0.35"/>

  <!-- Extra branch extending outward from gap -->
  <line x1="78" y1="16" x2="92" y2="4" stroke="#3b82f6" stroke-width="2" stroke-linecap="round"/>
  <line x1="96" y1="32" x2="112" y2="28" stroke="#3b82f6" stroke-width="2" stroke-linecap="round"/>

  <!-- Phi nodes -->
  <circle cx="60" cy="8" r="5" fill="#1e293b"/>
  <circle cx="60" cy="112" r="5" fill="#1e293b"/>
  <circle cx="47" cy="29" r="4.5" fill="#1e293b"/>
  <circle cx="86" cy="60" r="4.5" fill="#1e293b"/>

  <!-- Gap network nodes -->
  <circle cx="58" cy="14" r="4" fill="#3b82f6"/>
  <circle cx="78" cy="16" r="4" fill="#3b82f6"/>
  <circle cx="96" cy="32" r="4" fill="#3b82f6"/>

  <!-- Outer leaf nodes -->
  <circle cx="92" cy="4" r="3.5" fill="#3b82f6"/>
  <circle cx="112" cy="28" r="3.5" fill="#3b82f6"/>
</svg>
