<svg xmlns="http://www.w3.org/2000/svg" viewBox="0 0 120 120" fill="none">
  <!--
    I3: "Off-Center"
    The circle is shifted LEFT — the bar passes through the right portion
    of the bowl, not the center. Very asymmetric, immediately distinctive.
    Graph completes a gap on the far left where the circle extends furthest.
  -->

  <!-- Vertical bar (stays centered at x=60) -->
  <line x1="60" y1="8" x2="60" y2="112" stroke="#1e293b" stroke-width="5" stroke-linecap="round"/>

  <!-- Circle shifted left (centered at x=46), ~270° arc with gap at far left -->
  <path d="M 46,34 A 26,26 0 1 1 20,58" stroke="#1e293b" stroke-width="5" fill="none" stroke-linecap="round"/>

  <!-- Network completing the far-left gap -->
  <line x1="20" y1="58" x2="14" y2="48" stroke="#3b82f6" stroke-width="2.5" stroke-linecap="round"/>
  <line x1="14" y1="48" x2="22" y2="38" stroke="#3b82f6" stroke-width="2.5" stroke-linecap="round"/>
  <line x1="22" y1="38" x2="46" y2="34" stroke="#3b82f6" stroke-width="2.5" stroke-linecap="round"/>

  <!-- Cross-link -->
  <line x1="14" y1="48" x2="46" y2="34" stroke="#3b82f6" stroke-width="1.5" opacity="0.3"/>

  <!-- Branches extending further left -->
  <line x1="14" y1="48" x2="4" y2="36" stroke="#3b82f6" stroke-width="2" stroke-linecap="round"/>
  <line x1="22" y1="38" x2="10" y2="24" stroke="#3b82f6" stroke-width="2" stroke-linecap="round"/>

  <!-- Branch from where bar intersects circle on right -->
  <line x1="60" y1="34" x2="80" y2="20" stroke="#3b82f6" stroke-width="2.5" stroke-linecap="round"/>

  <!-- Phi nodes -->
  <circle cx="60" cy="8" r="5" fill="#1e293b"/>
  <circle cx="60" cy="112" r="5" fill="#1e293b"/>
  <circle cx="46" cy="34" r="4.5" fill="#1e293b"/>
  <circle cx="20" cy="58" r="4.5" fill="#1e293b"/>
  <circle cx="60" cy="34" r="4" fill="#1e293b"/>

  <!-- Network nodes -->
  <circle cx="14" cy="48" r="4" fill="#3b82f6"/>
  <circle cx="22" cy="38" r="4" fill="#3b82f6"/>

  <!-- Leaf nodes -->
  <circle cx="4" cy="36" r="3.5" fill="#3b82f6"/>
  <circle cx="10" cy="24" r="3.5" fill="#3b82f6"/>
  <circle cx="80" cy="20" r="4" fill="#3b82f6"/>
</svg>
