<svg xmlns="http://www.w3.org/2000/svg" viewBox="0 0 120 120" fill="none">
  <!--
    F2: "Network Dissolve" (E2 style + script φ)
    The open φ curve goes ~70% of the way, then dissolves into graph nodes
    that complete the connection back to the bar. Smooth curve → discrete graph.
  -->

  <!-- Vertical bar -->
  <line x1="60" y1="8" x2="60" y2="112" stroke="#1e293b" stroke-width="5" stroke-linecap="round"/>

  <!-- Partial φ curve (first ~70%, from bar down and left) -->
  <path d="M 60,26 C 26,26 16,59 30,78" stroke="#1e293b" stroke-width="5" fill="none" stroke-linecap="round"/>

  <!-- Graph nodes completing the path from curve-end back to bar -->
  <line x1="30" y1="78" x2="38" y2="86" stroke="#3b82f6" stroke-width="2.5" stroke-linecap="round"/>
  <line x1="38" y1="86" x2="48" y2="90" stroke="#3b82f6" stroke-width="2.5" stroke-linecap="round"/>
  <line x1="48" y1="90" x2="60" y2="94" stroke="#3b82f6" stroke-width="2.5" stroke-linecap="round"/>

  <!-- Branch edges extending outward from graph nodes -->
  <line x1="30" y1="78" x2="12" y2="84" stroke="#3b82f6" stroke-width="2" stroke-linecap="round"/>
  <line x1="38" y1="86" x2="28" y2="102" stroke="#3b82f6" stroke-width="2" stroke-linecap="round"/>
  <line x1="48" y1="90" x2="44" y2="108" stroke="#3b82f6" stroke-width="2" stroke-linecap="round"/>

  <!-- Cross-link between leaves -->
  <line x1="12" y1="84" x2="28" y2="102" stroke="#3b82f6" stroke-width="1.5" opacity="0.35"/>

  <!-- Branch from upper right of bar -->
  <line x1="60" y1="26" x2="80" y2="16" stroke="#3b82f6" stroke-width="2.5" stroke-linecap="round"/>

  <!-- Phi nodes -->
  <circle cx="60" cy="8" r="5" fill="#1e293b"/>
  <circle cx="60" cy="112" r="5" fill="#1e293b"/>
  <circle cx="60" cy="26" r="4.5" fill="#1e293b"/>
  <circle cx="60" cy="94" r="4.5" fill="#1e293b"/>

  <!-- Transition nodes (curve → graph) -->
  <circle cx="30" cy="78" r="4" fill="#1e293b"/>
  <circle cx="38" cy="86" r="4" fill="#3b82f6"/>
  <circle cx="48" cy="90" r="4" fill="#3b82f6"/>

  <!-- Leaf nodes -->
  <circle cx="12" cy="84" r="3.5" fill="#3b82f6"/>
  <circle cx="28" cy="102" r="3.5" fill="#3b82f6"/>
  <circle cx="44" cy="108" r="3.5" fill="#3b82f6"/>
  <circle cx="80" cy="16" r="4" fill="#3b82f6"/>
</svg>
